<svg height="52" viewBox="0 0 179 52" width="179" xmlns="http://www.w3.org/2000/svg"><g fill="#fffffe" fill-rule="evenodd"><path d="m.1062086 43.927619v-.2781587c.95752408-.2261587 1.61865206-.9145397 1.98667722-2.0659682.36802516-1.1530794.54997944-3.5054604.54997944-7.0546667v-27.96939683c0-1.81339682-.14819805-2.9375873-.44212419-3.36761905-.29310281-.43085714-.86778192-.67765079-1.72074405-.74450793v-.31860318c.89330493-.13123809 1.78002327-.32438095 2.66674162-.57612698.88342505-.25092064 1.76355681-.56209524 2.6445119-.93352381-.05269264 1.25790476-.09303544 2.47371428-.11773512 3.64495238-.02799296 1.17288889-.0403428 2.44069841-.0403428 3.80425397v18.61517463c.86531196-1.5236826 1.96856412-2.6660318 3.31222646-3.427873 1.34366232-.7610159 2.94090802-1.1423493 4.78844372-1.1423493 3.0808728 0 5.6142362 1.056508 7.6009134 3.1686985 1.9866772 2.1130158 2.9812508 4.8178412 2.9812508 8.1153015 0 3.1266032-1.0291531 5.7389842-3.0800495 7.8379683-2.0517197 2.0989841-4.5793198 3.1480635-7.5786837 3.1480635-1.6252386 0-3.0956926-.3309841-4.40559875-.992127-1.31072943-.6619682-2.45020779-1.6483174-3.423375-2.9606984-.17042776.6347302-.37131845 1.2339683-.60925865 1.7977143-.23464692.563746-.4972868 1.1035555-.78462636 1.6186032h-1.45810416c-.40425136 0-.84966883.0090793-1.33460579.0214603-.48823025.0123809-.99786689.0330158-1.53549649.0594285m5.56730682-10.7095238c0 3.3114921.62737176 5.8512381 1.88787852 7.6192381 1.25721347 1.7688254 3.05864316 2.6536508 5.40675896 2.6536508 2.3728154 0 4.2417575-.8963809 5.6043563-2.6833651 1.3625988-1.7869841 2.0451331-4.2590476 2.0451331-7.4104127 0-3.2850793-.6734778-5.8306031-2.0171401-7.6382222-1.3411924-1.8067936-3.2315409-2.7122539-5.6726921-2.7122539-2.2797801 0-4.05980334.8972063-5.3384232 2.6940952-1.27944318 1.7927619-1.91587148 4.2854603-1.91587148 7.4772698"/><path d="m48.562855 35.1066032.6084353.8146666c-.8126193 2.8063492-2.101119 4.9259683-3.8646759 6.356381-1.7643801 1.4312381-3.9824109 2.1468571-6.6549158 2.1468571-3.2414207 0-5.8949892-1.0523809-7.964822-3.159619-2.0731261-2.1064127-3.1080425-4.8005079-3.1080425-8.0872381 0-3.2429841 1.0225666-5.8982857 3.0676997-7.964254 2.0451331-2.0667936 4.6871751-3.1001905 7.9244792-3.1001905 2.8577524 0 5.1968117.7478096 7.0138845 2.2450794 1.8129561 1.4980953 2.8725722 3.5426032 3.1722616 6.1376508h-17.3630484c-.0246997.3978413-.0461061.7849524-.0584559 1.1613333-.0123499.3780318-.0222297.8336508-.0222297 1.3627302 0 3.1257778.7541634 5.6093968 2.2649602 7.4492063 1.5075035 1.8414604 3.5188804 2.7626032 6.0366006 2.7626032 2.1752181 0 4.0202839-.6883809 5.5335506-2.0667936 1.5173834-1.3759365 2.6543918-3.3973334 3.4143185-6.0584127m-17.0296028-5.464127h13.2727822c-.0806856-2.0783492-.6800644-3.7299683-1.7981364-4.9556825-1.1213653-1.2248889-2.586056-1.8381588-4.3965422-1.8381588-1.822836 0-3.349276.588508-4.5817898 1.768-1.2325138 1.1803175-2.0640695 2.8550476-2.4963138 5.0258413"/><path d="m51.2938157 42.496381 1.3782419-4.5900318h.1975974c.1943041 1.7102222 1.039033 3.0812064 2.5267768 4.1137778 1.4860972 1.0333968 3.3583325 1.5484444 5.6142362 1.5484444 1.927398 0 3.471951-.4762539 4.6402457-1.4295873 1.1682946-.9533333 1.748737-2.1988571 1.748737-3.7349206 0-1.2843175-.3737884-2.2252698-1.118072-2.820381-.7484001-.5975873-2.5432432-1.079619-5.3886458-1.4510476-2.8577524-.3838095-4.9366418-1.044127-6.2350214-1.9776508-1.2975563-.9335238-1.9463344-2.2145397-1.9463344-3.8422222 0-1.7886349.8743685-3.2743492 2.6231055-4.4604444 1.7520303-1.1860953 4.0046407-1.7795556 6.7570079-1.7795556 1.5083268 0 2.9195016.1172064 4.2392876.3483175 1.3164927.2327619 2.5053704.5662222 3.5682797 1.0036825l-1.1213652 3.9140318h-.2749897c-.4050747-1.4964445-1.1246586-2.6255874-2.1538117-3.3866032-1.0291532-.7618413-2.3571724-1.1423492-3.982411-1.1423492-1.7824932 0-3.247184.455619-4.3924256 1.3701587-1.1493582.9145397-1.7248607 2.0601905-1.7248607 3.4369524 0 1.1126349.4050747 1.9396825 1.2111075 2.4827936.806856.5414603 2.5918192.9739683 5.3573595 1.2909207 3.1492086.3573968 5.3293666.9566349 6.5495306 1.7977143 1.2209873.8410793 1.8294226 2.0899047 1.8294226 3.744 0 2.2665396-.9575241 4.0799365-2.8701022 5.443492-1.9158715 1.364381-4.5167473 2.0478095-7.8075674 2.0478095-1.7042776 0-3.321283-.1593015-4.847723-.4770793-1.5289099-.3186032-2.987014-.8006349-4.3776058-1.4502222"/><path d="m73.1653782 51.8935238v-.2773333c.9534075-.2517461 1.6087722-.8460318 1.9644476-1.7894603.3556753-.9393016.531043-3.1645715.531043-6.6749842v-15.7741587c0-1.1654603-.1514914-1.9273016-.4536507-2.2830476-.3005127-.3590476-.8587254-.5777778-1.672168-.6553651v-.3186032c.5384529-.0808889 1.1370083-.212127 1.8014296-.3978412.6619513-.1857143 1.6754613-.5290794 3.0372368-1.0317461l-.0979754 5.7010159c.5244564-2.0271746 1.5066802-3.5863492 2.9499645-4.68 1.4432844-1.0928254 3.2405974-1.6392381 5.3886459-1.6392381 3.0948693 0 5.6611655 1.0300952 7.7005354 3.0902857s3.0586431 4.6899048 3.0586431 7.8957461c0 3.1530158-1.0472662 5.8215238-3.1368587 8.0063492-2.0912392 2.1848254-4.671532 3.2793015-7.740055 3.2793015-1.7545002 0-3.3303395-.407746-4.7209312-1.2224127-1.3872985-.8146666-2.4156283-1.9306031-3.0858128-3.3478095v3.3775238c0 3.5632381.2033607 5.7918096.607612 6.6865397.408368.8939048 1.1962876 1.4873651 2.361289 1.7779048v.2773333c-.76075-.0387936-1.5107968-.0685079-2.2493171-.0874921-.7426369-.0214603-1.4679841-.031365-2.1752181-.031365-.4050747 0-.941881.0099047-1.6128888.031365-.6668912.0189842-1.4893904.0486985-2.4559711.0874921m12.7400926-8.5024127c2.3851653 0 4.2804537-.8980317 5.6743387-2.6924444 1.3971783-1.7935873 2.0945325-4.2408889 2.0945325-7.340254 0-3.2991111-.6734778-5.8545397-2.0237267-7.6679365-1.3543656-1.8150476-3.2381275-2.7213333-5.6644589-2.7213333-2.3604657 0-4.1676586.879873-5.4191088 2.6404444-1.2514502 1.7622222-1.8771753 4.2970159-1.8771753 7.6085079 0 3.2710477.6224318 5.7852064 1.8689421 7.5416508 1.2440403 1.7539683 3.0265335 2.6313651 5.3466564 2.6313651"/><path d="m100.598484 33.02c0-3.2041905 1.071966-5.824 3.215898-7.8569524 2.144755-2.032127 4.912765-3.0490159 8.308147-3.0490159 3.395383 0 6.148573 1.0267937 8.258749 3.080381 2.109352 2.0519365 3.167321 4.7262222 3.167321 8.0236825 0 3.3246985-1.057969 6.0105397-3.167321 8.0566985-2.110176 2.0478095-4.909473 3.0696507-8.39789 3.0696507-3.367389 0-6.10823-1.0457777-8.218405-3.1381587-2.110176-2.0948571-3.166499-4.8227936-3.166499-8.1862857m3.735415.0379683c0 3.3131428.682534 5.8784761 2.045133 7.7017777 1.365892 1.82 3.27847 2.7312381 5.743497 2.7312381 2.465851 0 4.362786-.8980317 5.694099-2.6949206 1.331312-1.7919365 1.993264-4.359746 1.993264-7.6968254 0-3.271873-.676771-5.8099683-2.033607-7.6175873-1.356012-1.8084445-3.25624-2.712254-5.694098-2.712254-2.437035 0-4.337263.9038095-5.703155 2.712254-1.362599 1.807619-2.045133 4.3341587-2.045133 7.5763175"/><path d="m125.611846 43.9680635v-.3186032c.985517-.3177778 1.658994-.944254 2.02702-1.8786032.367201-.9335238.549979-2.9706031.549979-6.1087619v-29.06387298c0-1.80101587-.148198-2.92933333-.442124-3.38660317-.293103-.45726984-.874369-.71149207-1.739681-.76514286v-.31777778c.708058-.09244444 1.486097-.25504762 2.33906-.48698412.852962-.23111112 1.900228-.5728254 3.145092-1.02266667-.03705 1.09860317-.077393 2.47701587-.114442 4.1327619-.067513 2.19803175-.098799 16.98996828-.098799 17.24336508v10.0112381l5.604356-4.7270476c1.007747-.8493334 1.742974-1.5608254 2.203211-2.1353016.456944-.5769524.685828-1.0705397.685828-1.4807619 0-.1980953-.086449-.3697778-.265933-.5166984-.176191-.1452699-.435538-.2591746-.77557-.3375873l.018936-.2773334c1.022567.0652064 1.81378.1089524 2.369523.1279365.559036.020635 1.078552.0313651 1.563489.0313651.997867 0 2.496314-.0544762 4.504398-.1593016h.117735v.2773334c-1.205344.2377143-2.333296.5967619-3.383032 1.0721904-1.04809.476254-2.280604 1.2455239-3.698365 2.3053334l-6.312414 4.7650159c1.758617.0156825 3.222484.3532698 4.396542 1.0144127 1.174058.6619682 2.376109 1.907492 3.608623 3.7365714.246997.3697778.602672.9128889 1.062909 1.6293333 2.147225 3.2966349 4.050747 5.4030476 5.703155 6.3175873v.3186032c-1.038209-.0404445-2.048426-.0718095-3.039706-.0907937-.988811-.0198095-1.961978-.031365-2.919502-.031365-.683358-1.0845715-1.584896-2.568635-2.712848-4.4497143-2.965607-4.9267937-5.135062-7.3897778-6.512481-7.3897778-.797799 0-1.369185.312-1.709217.9335238-.339209.6215238-.509637 1.6953651-.509637 3.2182222 0 2.7543492.182778 4.6106667.549979 5.5623492.368026.9549842 1.053853 1.5971429 2.06407 1.9289524v.3186032c-.670185-.0404445-1.337899-.0718095-2.005614-.0907937-.670184-.0198095-1.337075-.031365-2.00479-.031365-.997867 0-1.810486.0115555-2.440328.031365-.630665.0189842-1.2391.0503492-1.829422.0907937"/><path d="m169.368967 35.1066032.609259.8146666c-.813443 2.8063492-2.101119 4.9259683-3.8655 6.356381-1.760263 1.4312381-3.979117 2.1468571-6.654915 2.1468571-3.238128 0-5.891696-1.0523809-7.964822-3.159619-2.073126-2.1064127-3.10722-4.8005079-3.10722-8.0872381 0-3.2429841 1.021744-5.8982857 3.066877-7.964254 2.045133-2.0667936 4.687175-3.1001905 7.924479-3.1001905 2.857752 0 5.196812.7478096 7.013884 2.2450794 1.812957 1.4980953 2.872573 3.5426032 3.176379 6.1376508h-17.367165c-.027993.3978413-.046106.7849524-.058456 1.1613333-.015643.3780318-.018937.8336508-.018937 1.3627302 0 3.1257778.75087 5.6093968 2.258374 7.4492063 1.510797 1.8414604 3.522174 2.7626032 6.037424 2.7626032 2.179335 0 4.022754-.6883809 5.536021-2.0667936 1.514913-1.3759365 2.654391-3.3973334 3.414318-6.0584127m-17.032896-5.464127h13.276075c-.077392-2.0783492-.675947-3.7299683-1.798136-4.9556825-1.121365-1.2248889-2.588526-1.8381588-4.396542-1.8381588-1.822836 0-3.349276.588508-4.58179 1.768-1.232514 1.1803175-2.06407 2.8550476-2.499607 5.0258413"/><path d="m174.923924 42.3981587c0-.5777777.198421-1.0614603.583736-1.4543492.393548-.3937143.866135-.5934603 1.425171-.5934603.540923 0 1.016803.2063492 1.420231.6132698.402605.4077461.603496.8848254.603496 1.4345397s-.200891 1.0234921-.603496 1.4229842c-.403428.399492-.879308.6025396-1.420231.6025396-.583736 0-1.065379-.1931428-1.442461-.5728254-.373789-.3805079-.566446-.8625396-.566446-1.4526984"/></g></svg>